<?xml version="1.0" encoding="UTF-8"?>
<svg id="Layer_1" data-name="Layer 1" xmlns="http://www.w3.org/2000/svg" viewBox="0 0 198 44.39">
  <defs>
    <style>
      .cls-1 {
        fill: #ec1b68;
      }

      .cls-1, .cls-2, .cls-3, .cls-4, .cls-5 {
        fill-rule: evenodd;
      }

      .cls-1, .cls-2, .cls-3, .cls-4, .cls-5, .cls-6 {
        stroke-width: 0px;
      }

      .cls-2 {
        fill: #b86cab;
      }

      .cls-3 {
        fill: #f16822;
      }

      .cls-4 {
        fill: #33c5f3;
      }

      .cls-5 {
        fill: #a4cd39;
      }

      .cls-6 {
        fill: #fff;
      }
    </style>
  </defs>
  <g>
    <path class="cls-5" d="M38.51,8.4l7.47,5.34c.94.67,2.16,2.29-.08,3.58l-6.53,4.84c-1.45,1.07-4.53,2.76-4.53-.76v-12.34c0-2.93,2.42-1.55,3.66-.66"/>
    <path class="cls-4" d="M57.14,9.33l-7.47-5.34c-1.48-1.06-2.33-3.62,2.11-3.55l6.46.1c2.32,0,2.57.08,2.57,2.67v4.6c0,2.94-1.58,3.01-3.67,1.51"/>
    <path class="cls-4" d="M20.5,8.4l-7.47,5.34c-.94.67-2.16,2.29.08,3.58l6.53,4.84c1.45,1.07,4.53,2.76,4.53-.76v-12.34c0-2.93-2.42-1.55-3.67-.66"/>
    <path class="cls-5" d="M3.66,21.27l7.47,5.34c.94.67,2.16,2.29-.08,3.58l-6.52,4.84c-1.46,1.07-4.53,2.77-4.53-.75v-12.34c0-2.93,2.42-1.55,3.66-.66"/>
    <path class="cls-1" d="M3.66,9.18l7.47-5.34c.94-.67,2.16-2.16-.08-3.45H2.57C1.06.39,0-.05,0,3.06v5.45c0,2.93,2.42,1.56,3.66.67"/>
    <path class="cls-1" d="M39.21,34.38l8.48,6.06c1.07.77,2.45,2.45-.09,3.92h-9.64c-1.71,0-2.91.5-2.91-3.04v-6.19c0-3.34,2.75-1.77,4.16-.76"/>
    <path class="cls-3" d="M57.1,21.27l-7.47,5.34c-.94.67-2.16,2.29.08,3.58l6.53,4.84c1.45,1.07,4.53,2.77,4.53-.75v-12.34c0-2.93-2.42-1.55-3.66-.66"/>
    <path class="cls-2" d="M19.84,34.38l-8.48,6.06c-1.07.77-2.45,2.45.09,3.92h9.64c1.71,0,2.92.5,2.92-3.04v-6.19c0-3.34-2.75-1.77-4.17-.76"/>
  </g>
  <g>
    <path class="cls-6" d="M83.13,5.14c-.28-.52-.69-.92-1.22-1.2-.53-.28-1.15-.41-1.87-.41-1.24,0-2.23.41-2.98,1.22-.75.81-1.12,1.9-1.12,3.25,0,1.45.39,2.58,1.17,3.39.78.81,1.86,1.22,3.23,1.22.94,0,1.73-.24,2.38-.72.65-.48,1.12-1.16,1.42-2.06h-2.66l-2.19-2.82h8.32v3.56c-.28.95-.76,1.84-1.44,2.66-.68.82-1.54,1.48-2.58,1.99-1.04.51-2.22.76-3.53.76-1.55,0-2.93-.34-4.15-1.02-1.22-.68-2.16-1.62-2.84-2.83-.68-1.21-1.02-2.59-1.02-4.14s.34-2.93,1.02-4.15c.68-1.22,1.62-2.16,2.83-2.84,1.21-.68,2.59-1.02,4.14-1.02,1.88,0,3.46.46,4.75,1.36,1.29.91,2.14,2.17,2.56,3.78h-4.23Z"/>
    <path class="cls-6" d="M93.26,15.28c-.98-.52-1.74-1.27-2.3-2.24-.56-.97-.84-2.1-.84-3.4s.28-2.41.85-3.39c.57-.98,1.34-1.73,2.33-2.25.98-.52,2.09-.78,3.31-.78s2.33.26,3.31.78c.98.52,1.76,1.27,2.33,2.25.57.98.85,2.11.85,3.39s-.29,2.41-.86,3.39c-.57.98-1.36,1.73-2.35,2.25-.99.52-2.1.78-3.32.78s-2.32-.26-3.3-.78ZM98.42,11.95c.51-.54.77-1.3.77-2.3s-.25-1.77-.75-2.3c-.5-.54-1.11-.81-1.85-.81s-1.36.26-1.86.79c-.49.53-.74,1.3-.74,2.32s.24,1.77.73,2.3c.48.54,1.09.81,1.82.81s1.35-.27,1.87-.81Z"/>
    <path class="cls-6" d="M76.54,24.19v3.18h5.12v2.95h-5.12v3.44h5.79v3.06h-9.62v-15.7h9.62v3.06h-5.79Z"/>
    <path class="cls-6" d="M97.04,25.63c.87.95,1.31,2.25,1.31,3.9v7.29h-3.8v-6.78c0-.83-.22-1.48-.65-1.95-.43-.46-1.01-.69-1.74-.69s-1.31.23-1.74.69c-.43.46-.65,1.11-.65,1.95v6.78h-3.83v-12.48l3.83.83v.82c.39-.55.91-.99,1.57-1.31.66-.32,1.39-.48,2.21-.48,1.46,0,2.63.47,3.5,1.42Z"/>
    <path class="cls-6" d="M109.08,33.58v3.24h-1.95c-1.39,0-2.47-.34-3.24-1.02-.78-.68-1.16-1.79-1.16-3.32v-4.97h-1.52v-3.18h1.52v-.97l3.83-2.07v3.04h1.06l1.44,3.18h-2.51v5.01c0,.37.09.64.27.81.18.16.48.25.89.25h1.36Z"/>
    <path class="cls-6" d="M124.03,31.5h-8.66c.06.78.31,1.37.75,1.78.44.41.98.62,1.62.62.95,0,1.62-.4,1.99-1.21h4.07c-.21.82-.59,1.56-1.13,2.21-.54.66-1.23,1.17-2.05,1.54-.82.37-1.74.56-2.75.56-1.22,0-2.31-.26-3.27-.78-.95-.52-1.7-1.27-2.24-2.24-.54-.97-.81-2.1-.81-3.4s.26-2.43.79-3.4c.53-.97,1.27-1.71,2.23-2.24.95-.52,2.05-.78,3.29-.78s2.28.25,3.22.76c.94.51,1.67,1.23,2.2,2.17.53.94.79,2.04.79,3.29,0,.36-.02.73-.07,1.12ZM120.18,29.38c0-.66-.22-1.18-.67-1.57-.45-.39-1.01-.58-1.68-.58s-1.18.19-1.62.56c-.44.37-.71.9-.82,1.59h4.79Z"/>
    <path class="cls-6" d="M132.73,24.8c.67-.39,1.42-.59,2.24-.59v4.05h-1.05c-.95,0-1.67.21-2.15.62-.48.41-.72,1.13-.72,2.16v5.79h-3.83v-12.48l3.83.83v1.25c.45-.69,1.01-1.23,1.68-1.62Z"/>
    <path class="cls-6" d="M143.29,24.7c.66-.36,1.42-.54,2.3-.54,1.03,0,1.96.26,2.8.78.84.52,1.49,1.27,1.98,2.24.48.97.73,2.1.73,3.38s-.24,2.41-.73,3.39c-.48.98-1.14,1.73-1.98,2.26-.84.53-1.77.79-2.8.79-.87,0-1.63-.18-2.29-.54-.66-.36-1.18-.82-1.55-1.39v7.7h-3.83v-18.43l3.83.83v.93c.37-.58.89-1.05,1.54-1.41ZM146.41,28.32c-.53-.54-1.18-.82-1.96-.82s-1.41.28-1.93.83c-.53.55-.79,1.31-.79,2.26s.26,1.71.79,2.26c.53.55,1.17.83,1.93.83s1.41-.28,1.95-.84c.54-.56.81-1.32.81-2.27s-.26-1.7-.79-2.25Z"/>
    <path class="cls-6" d="M159.73,24.8c.67-.39,1.42-.59,2.24-.59v4.05h-1.05c-.95,0-1.67.21-2.15.62-.48.41-.72,1.13-.72,2.16v5.79h-3.83v-12.48l3.83.83v1.25c.45-.69,1.01-1.23,1.68-1.62Z"/>
    <path class="cls-6" d="M165.2,22.46c-.43-.39-.64-.88-.64-1.47s.21-1.09.64-1.49c.42-.39.97-.59,1.64-.59s1.2.2,1.62.59c.42.4.64.89.64,1.49s-.21,1.07-.64,1.47c-.43.4-.97.59-1.62.59s-1.22-.2-1.64-.59ZM168.74,24.35v12.48h-3.83v-12.48h3.83Z"/>
    <path class="cls-6" d="M174.8,36.45c-.85-.37-1.52-.88-2.01-1.53-.49-.65-.77-1.38-.83-2.18h3.78c.04.43.25.78.6,1.05s.8.4,1.32.4c.48,0,.85-.09,1.11-.28.26-.19.39-.43.39-.73,0-.36-.19-.62-.56-.79-.37-.17-.98-.36-1.81-.57-.89-.21-1.64-.43-2.24-.66-.6-.23-1.11-.6-1.54-1.1-.43-.5-.65-1.17-.65-2.02,0-.72.2-1.37.59-1.96.39-.59.98-1.05,1.74-1.4.77-.34,1.68-.51,2.74-.51,1.57,0,2.8.39,3.7,1.16.9.78,1.42,1.8,1.55,3.09h-3.53c-.06-.43-.25-.78-.57-1.03-.32-.25-.74-.38-1.26-.38-.45,0-.79.09-1.03.26-.24.17-.36.41-.36.7,0,.36.19.63.57.81s.97.36,1.78.54c.92.24,1.68.47,2.26.7.58.23,1.09.6,1.53,1.12.44.51.67,1.2.68,2.07,0,.73-.21,1.38-.62,1.96-.41.57-1,1.03-1.77,1.35-.77.33-1.66.49-2.67.49-1.09,0-2.06-.19-2.91-.56Z"/>
    <path class="cls-6" d="M197.93,31.5h-8.66c.06.78.31,1.37.75,1.78.44.41.98.62,1.62.62.95,0,1.62-.4,1.99-1.21h4.07c-.21.82-.59,1.56-1.13,2.21-.54.66-1.23,1.17-2.05,1.54-.82.37-1.74.56-2.75.56-1.22,0-2.31-.26-3.27-.78-.95-.52-1.7-1.27-2.24-2.24-.54-.97-.81-2.1-.81-3.4s.26-2.43.79-3.4c.53-.97,1.27-1.71,2.23-2.24.95-.52,2.05-.78,3.29-.78s2.28.25,3.22.76c.94.51,1.67,1.23,2.2,2.17.53.94.79,2.04.79,3.29,0,.36-.02.73-.07,1.12ZM194.09,29.38c0-.66-.22-1.18-.67-1.57-.45-.39-1.01-.58-1.68-.58s-1.18.19-1.62.56c-.44.37-.71.9-.82,1.59h4.79Z"/>
  </g>
</svg>